<?xml version="1.0" encoding="utf-8"?>
<!-- Generator: Adobe Illustrator 19.0.0, SVG Export Plug-In . SVG Version: 6.00 Build 0)  -->
<svg version="1.1" id="Camada_1" xmlns="http://www.w3.org/2000/svg" xmlns:xlink="http://www.w3.org/1999/xlink" x="0px" y="0px"
	 viewBox="-129 314 351.4 166" style="enable-background:new -129 314 351.4 166;" xml:space="preserve">
<style type="text/css">
	.st0{fill:#FFFFFF;}
</style>
<title>Revista Veja</title>
<path class="st0" d="M95.6,344.2h18.6v103.2h-0.1c0,0.7,0.1,1.4,0.1,2c0,16.5-12.4,30-27.8,30.5h-11v-16h2.5
	c9.8,0,17.8-7.4,17.8-16.5V344.2L95.6,344.2z M95.6,333.7h18.6V314H95.6V333.7z M-64.3,443.4l49.2-98.5h-23.2L-72,420.3l-33.8-75.3
	H-129l49.2,98.5L-64.3,443.4L-64.3,443.4z M58.4,439.5c8.3-4.7,15.2-11.4,19.9-19.6c1.5-2.6,2.8-5.4,3.9-8.3H61.5
	c-5.6,11.9-16.7,20-29.5,20c-17.1,0-31.3-14.5-33.1-33.1H85c0.1-1.4,0.2-2.8,0.2-4.2c0-3-0.3-5.9-0.7-8.7
	c-4.2-24.7-26.2-43.4-52.5-43.4c-29.4,0-53.3,23.4-53.3,52.1s23.9,52.1,53.3,52.1C41.6,446.4,50.6,443.9,58.4,439.5z M64.4,385.6
	H-0.5c3.5-16.4,16.7-28.7,32.4-28.7C47.7,356.9,60.9,369.1,64.4,385.6L64.4,385.6z M204,396.1c-5,2.2-10.1,3.6-15,4.6
	c-7.2,1.4-14,1.8-20.1,2.2c-4.1,0.2-11.3,0.1-16.5,2.1c-5.3,2-6.8,6.8-6,11.6c3.3,20.2,32.3,17.4,45.4,9.4
	C202.5,419.3,205.8,408.7,204,396.1z M222.3,376.4V443H204v-8.4c-6.1,5-11.7,8.2-18.2,10.2c-10.4,3.2-23.1,4-33.6,1.1
	c-15.3-4.2-29.2-15.6-27.5-33.5c1.2-13.2,8-20.3,17.4-23.1c13.9-4.1,34.4-0.1,48-3.4c7-1.7,13.8-4.3,13.8-13
	c0-8.7-11.8-15.8-26.3-15.8c-6.6,0-12.7,1.5-17.3,3.9c-6.3,3.3-9,7.4-9,14.5h-20.9c0-5.4,0.2-9,2.6-13.5c8-15.1,28.3-20,44-20
	c16.9,0,31.6,5.5,39.4,13.7C222.3,361.9,222.3,368.1,222.3,376.4L222.3,376.4z"/>
</svg>
